# xmcd
#
# Track frame offsets:
# 150
# 16817
# 37187
# 49922
# 67407
# 83942
# 99037
# 119837
# 134252
# 158125
#
# Disc length: 2490 seconds
#
#
# Revision: 0
# Processed by: cddbd v1.4PL0 Copyright (c) Steve Scherf et al.
# Submitted via: FreeRIP 2.35 
#
DISCID=8a09b80a
DTITLE=Marcos Goes - Carros e Cavaleiros
DYEAR=2000
DGENRE=evangelica
TTITLE0=Tua Lei
TTITLE1=Meu desejo
TTITLE2=Todo o meu amor
TTITLE3=Carros e Cavaleiros
TTITLE4=Pra sempre ... amor
TTITLE5=O dia do Senhor
TTITLE6=Milagre do senhor
TTITLE7=Eu profetizo
TTITLE8=Vai e nao peques mais
TTITLE9=Buscai
EXTD=
EXTT0=
EXTT1=
EXTT2=
EXTT3=
EXTT4=
EXTT5=
EXTT6=
EXTT7=
EXTT8=
EXTT9=
PLAYORDER=
